<svg xmlns="http://www.w3.org/2000/svg" xmlns:xlink="http://www.w3.org/1999/xlink" width="1200" height="1200" viewBox="0 0 1200 1200"><rect width="100%" height="100%"></rect><g transform="translate(600 600) scale(0.69 0.69) rotate(0) translate(-600 -600)" style="fill:#66D6FF"><svg fill="#66D6FF" version="1.0" xmlns="http://www.w3.org/2000/svg" xmlns:xlink="http://www.w3.org/1999/xlink" x="0px" y="0px" viewBox="0 0 100 100" enable-background="new 0 0 100 100" xml:space="preserve"><path d="M50,100c-27.57,0-50-22.43-50-50S22.43,0,50,0c27.57,0,50,22.43,50,50S77.57,100,50,100L50,100z M50,5.689
	C25.566,5.689,5.688,25.567,5.688,50S25.566,94.312,50,94.312S94.312,74.434,94.312,50S74.434,5.689,50,5.689L50,5.689z"></path><path d="M50.014,59.621c-5.196,0-9.423-4.228-9.423-9.424c0-5.196,4.228-9.423,9.423-9.423c5.197,0,9.423,4.228,9.423,9.423
	C59.438,55.393,55.211,59.621,50.014,59.621L50.014,59.621z M50.014,42.196c-4.412,0-8.001,3.589-8.001,8.001
	c0,4.412,3.589,8.002,8.001,8.002s8.001-3.59,8.001-8.002C58.016,45.785,54.426,42.196,50.014,42.196L50.014,42.196z"></path><path d="M53.574,39.603l-0.88-0.218c-0.755-0.187-2.393-0.274-2.683-0.284c-0.725,0.028-2.023,0.127-2.698,0.286l-0.874,0.206
	v-7.486c-5.065-1.559-8.556-6.247-8.556-11.588c0-6.595,5.156-11.923,11.739-12.131l0.038,0h0.032l0.065,0l0.084,0l0.073,0l0.101,0
	c6.686,0,12.125,5.442,12.125,12.131c0,5.343-3.489,10.031-8.551,11.589L53.574,39.603L53.574,39.603z M49.673,9.809
	c-5.816,0.183-10.368,4.887-10.368,10.709c0,4.879,3.299,9.14,8.023,10.362l0.533,0.138v6.833c0.771-0.101,1.648-0.156,2.119-0.174
	c0.041-0.004,1.18,0.043,2.174,0.172l0.015-6.832l0.531-0.138c4.721-1.221,8.017-5.482,8.017-10.362
	c0-5.905-4.801-10.709-10.702-10.709l-0.101,0l-0.073,0l-0.084,0l-0.053,0H49.673L49.673,9.809z"></path><path d="M24.316,77.19C24.316,77.19,24.316,77.19,24.316,77.19c-4.237,0-8.095-2.142-10.319-5.728
	c-0.012-0.02-0.024-0.041-0.036-0.062c-0.022-0.037-0.04-0.067-0.057-0.098l-0.104-0.18c-1.619-2.804-2.048-6.071-1.208-9.202
	c0.84-3.13,2.847-5.745,5.651-7.364c1.842-1.063,3.934-1.625,6.049-1.625c3.055,0,6.035,1.173,8.262,3.236l6.5-3.735l0.251,0.872
	c0.216,0.749,0.959,2.211,1.095,2.465c0.386,0.612,1.121,1.688,1.597,2.193l0.616,0.654l-6.483,3.742
	c1.183,5.166-1.132,10.533-5.758,13.204C28.529,76.627,26.435,77.19,24.316,77.19L24.316,77.19z M24.293,54.353
	c-1.866,0-3.712,0.496-5.338,1.435c-2.475,1.43-4.247,3.738-4.988,6.501c-0.742,2.764-0.363,5.648,1.065,8.123l0.138,0.24
	c0.01,0.017,0.021,0.036,0.033,0.056c1.966,3.17,5.371,5.06,9.113,5.06c1.87,0.001,3.718-0.496,5.346-1.436
	c4.225-2.439,6.266-7.427,4.962-12.129l-0.147-0.531l5.918-3.416c-0.473-0.618-0.959-1.35-1.21-1.749
	c-0.031-0.05-0.558-1.053-0.939-1.969l-5.923,3.403l-0.385-0.392C29.941,55.518,27.155,54.353,24.293,54.353L24.293,54.353z"></path><path d="M75.685,77.19c-2.119,0-4.214-0.562-6.058-1.627c-4.626-2.671-6.939-8.038-5.757-13.204l-6.483-3.742l0.615-0.654
	c0.478-0.508,1.212-1.582,1.598-2.193c0.13-0.245,0.88-1.721,1.094-2.465l0.252-0.872l6.499,3.735
	c2.228-2.063,5.207-3.236,8.262-3.236c2.116,0,4.208,0.562,6.05,1.625c2.804,1.619,4.812,4.234,5.651,7.364
	c0.84,3.131,0.411,6.398-1.208,9.202L86.097,71.3c-0.018,0.031-0.035,0.062-0.054,0.093c-0.017,0.029-0.028,0.05-0.04,0.069
	C83.778,75.048,79.921,77.19,75.685,77.19L75.685,77.19z M59.605,58.255l5.918,3.416l-0.147,0.531
	c-1.304,4.702,0.737,9.689,4.962,12.129c1.628,0.939,3.477,1.436,5.347,1.436c3.741,0,7.146-1.89,9.109-5.055l0.174-0.301
	c1.429-2.475,1.807-5.359,1.065-8.123c-0.741-2.763-2.513-5.071-4.989-6.501c-1.625-0.938-3.471-1.435-5.338-1.435
	c-2.86,0-5.646,1.165-7.644,3.196l-0.386,0.392l-5.922-3.403c-0.383,0.922-0.913,1.928-0.943,1.974
	C60.564,56.906,60.079,57.637,59.605,58.255L59.605,58.255z"></path><path d="M50.016,66.247c-3.554,0-6.921-1.139-9.738-3.294l-0.846-0.646l4.673-2.705l0.356,0.207
	c1.681,0.973,3.602,1.487,5.555,1.487c1.948,0,3.865-0.513,5.543-1.481l0.355-0.206l4.675,2.708l-0.847,0.646
	C56.927,65.111,53.563,66.247,50.016,66.247L50.016,66.247z M42.023,62.45c2.375,1.557,5.117,2.375,7.992,2.375
	c2.869,0,5.606-0.815,7.979-2.368l-2.089-1.21c-1.805,0.964-3.832,1.471-5.891,1.471c-2.063,0-4.096-0.509-5.904-1.477L42.023,62.45
	L42.023,62.45z"></path><path d="M65.787,53.368l-4.679-2.691l0.005-0.55c0-3.975-2.083-7.547-5.573-9.555l-0.356-0.205l-0.002-5.405l0.984,0.409
	c6.013,2.499,9.898,8.318,9.898,14.827c0,0.707-0.047,1.42-0.139,2.116L65.787,53.368L65.787,53.368z M62.532,49.854l2.085,1.2
	c0.017-0.285,0.024-0.571,0.024-0.856c0-5.569-3.121-10.584-8.037-13.062l0.001,2.415C60.249,41.802,62.442,45.61,62.532,49.854
	L62.532,49.854z"></path><path d="M34.24,53.349l-0.138-1.055c-0.09-0.69-0.136-1.396-0.136-2.097c0-6.508,3.883-12.329,9.893-14.829l0.982-0.409l0.009,5.398
	l-0.357,0.205c-3.443,1.979-5.582,5.671-5.582,9.634l0.003,0.467L34.24,53.349L34.24,53.349z M43.423,37.134
	c-4.915,2.478-8.034,7.495-8.034,13.064c0,0.279,0.008,0.559,0.023,0.838l2.082-1.196c0.121-4.196,2.361-8.081,5.932-10.296
	L43.423,37.134L43.423,37.134z"></path></svg></g></svg>
